<svg width="28" height="22" viewBox="0 0 28 22" fill="none" xmlns="http://www.w3.org/2000/svg">
<g clip-path="url(#clip0_1_2939)">
<path d="M26.1349 10.7949H1.91869C0.965019 10.7949 0.188965 11.3735 0.188965 12.0846C0.188965 12.7957 0.965019 13.3743 1.91869 13.3743H26.1349C27.0886 13.3743 27.8646 12.7957 27.8646 12.0846C27.8646 11.3735 27.0886 10.7949 26.1349 10.7949Z" fill="#0984E3"/>
<path d="M26.294 12.5308C25.9815 12.4654 25.6678 12.5978 25.5813 12.8266L25.5364 12.9444H2.51825L2.47214 12.8266C2.38565 12.5978 2.0697 12.4672 1.75949 12.5308C1.45273 12.5961 1.2763 12.8343 1.36397 13.0621L2.953 17.2098C3.44538 18.4951 5.04138 19.3928 6.83338 19.3928H21.2189C23.0121 19.3928 24.6069 18.4951 25.0993 17.2098L26.6884 13.0621C26.7772 12.8343 26.5995 12.5961 26.294 12.5308ZM6.83452 17.6732C6.06652 17.6732 5.38154 17.2888 5.17165 16.7377L4.42327 14.7825C4.33565 14.5538 4.51322 14.3165 4.81879 14.2512C5.12781 14.1859 5.44495 14.3191 5.53143 14.547L6.27981 16.5021C6.35133 16.6853 6.57846 16.8142 6.83446 16.8142C7.15273 16.8142 7.41106 17.0068 7.41106 17.2442C7.41111 17.4815 7.15279 17.6732 6.83452 17.6732Z" fill="#0984E3"/>
<path d="M7.94162 18.5776C7.65681 18.4736 7.312 18.557 7.16784 18.7702L6.0147 20.4898C5.87286 20.7022 5.98816 20.9601 6.27302 21.0668C6.35719 21.0977 6.44486 21.1124 6.53135 21.1124C6.74238 21.1124 6.94535 21.0255 7.04681 20.8742L8.19994 19.1546C8.34178 18.9422 8.22643 18.6842 7.94162 18.5776Z" fill="#0984E3"/>
<path d="M22.0389 20.4909L20.8857 18.7713C20.7428 18.558 20.3968 18.4729 20.1119 18.5786C19.8271 18.6852 19.7118 18.9432 19.8536 19.1556L21.0068 20.8752C21.1082 21.0256 21.3112 21.1125 21.5222 21.1125C21.6087 21.1125 21.6963 21.0979 21.7805 21.0678C22.0654 20.9611 22.1807 20.7032 22.0389 20.4909Z" fill="#0984E3"/>
<path d="M23.3501 0.553711C22.7619 0.553711 22.2084 0.724796 21.7922 1.03521L19.9621 2.3997C19.7372 2.56736 19.7372 2.83993 19.9621 3.00759C20.187 3.17525 20.5525 3.17525 20.7774 3.00759L22.6074 1.64394C22.8046 1.49607 23.0686 1.41438 23.3558 1.41438C23.9346 1.41438 24.4051 1.76517 24.4051 2.19678V11.2246C24.4051 11.4619 24.6635 11.6545 24.9817 11.6545C25.3 11.6545 25.5583 11.4619 25.5595 11.2238V2.19593C25.5595 1.29057 24.5724 0.553711 23.3501 0.553711Z" fill="#0984E3"/>
<path d="M21.3539 2.82981L20.2008 1.97003C20.0693 1.87201 19.886 1.82643 19.6992 1.84965L16.8163 2.20217C16.6042 2.22797 16.43 2.33973 16.362 2.49106C16.2939 2.6424 16.3458 2.81091 16.4958 2.92525L19.9552 5.58201C20.0648 5.66713 20.2158 5.71271 20.368 5.71271C20.4223 5.71271 20.4776 5.70671 20.5318 5.69466C20.737 5.64996 20.8927 5.52357 20.9342 5.36707L21.5108 3.2176C21.5488 3.07743 21.49 2.9321 21.3539 2.82981Z" fill="#0984E3"/>
<path d="M13.8573 5.76252C13.6324 5.59486 13.2669 5.59486 13.042 5.76252L11.8889 6.62231C11.664 6.78997 11.664 7.06253 11.8889 7.23019C12.0019 7.31358 12.1495 7.35574 12.2971 7.35574C12.4447 7.35574 12.5923 7.31362 12.7042 7.23019L13.8573 6.37041C14.0822 6.20271 14.0822 5.93018 13.8573 5.76252Z" fill="#0984E3"/>
<path d="M16.1636 7.48201C15.9388 7.31435 15.5732 7.31435 15.3483 7.48201L14.1952 8.34179C13.9703 8.50945 13.9703 8.78202 14.1952 8.94968C14.3082 9.03306 14.4558 9.07522 14.6034 9.07522C14.751 9.07522 14.8986 9.0331 15.0105 8.94968L16.1636 8.0899C16.3885 7.92224 16.3885 7.64967 16.1636 7.48201Z" fill="#0984E3"/>
<path d="M17.3167 4.90266C17.0918 4.735 16.7263 4.735 16.5014 4.90266L15.3483 5.76244C15.1234 5.9301 15.1234 6.20267 15.3483 6.37033C15.4613 6.45372 15.6089 6.49587 15.7565 6.49587C15.9041 6.49587 16.0517 6.45376 16.1636 6.37033L17.3167 5.51055C17.5416 5.34289 17.5416 5.07032 17.3167 4.90266Z" fill="#0984E3"/>
</g>
<defs>
<clipPath id="clip0_1_2939">
<rect width="27.6757" height="20.6351" fill="white" transform="translate(0.188965 0.515564)"/>
</clipPath>
</defs>
</svg>
