<svg width="29" height="22" viewBox="0 0 29 22" fill="none" xmlns="http://www.w3.org/2000/svg">
<g clip-path="url(#clip0_1_3004)">
<path d="M2.81031 12.0604H25.8925C26.8438 12.0604 27.615 11.4854 27.615 10.7761C27.615 10.0668 26.8438 9.49176 25.8925 9.49176H2.81031C1.85896 9.49176 1.08777 10.0668 1.08777 10.7761C1.08771 11.4854 1.85896 12.0604 2.81031 12.0604V12.0604Z" fill="#0984E3"/>
<path d="M16.0741 6.72162C15.5713 6.72162 15.1624 7.02655 15.1624 7.40141V8.28271H22.2185V7.40141C22.2185 7.02655 21.8095 6.72162 21.3068 6.72162H16.0741Z" fill="#0984E3"/>
<path d="M4.86286 7.40135C4.86286 6.3598 5.9993 5.51247 7.39621 5.51247H12.6289C13.2937 5.51247 13.8991 5.70464 14.3515 6.01803C14.8038 5.70464 15.4092 5.51247 16.074 5.51247H21.3067C22.7036 5.51247 23.8401 6.3598 23.8401 7.40135V8.28265H26.4719V4.11856C26.4719 3.40923 25.7006 2.83423 24.7493 2.83423H3.95362C3.00227 2.83423 2.23108 3.40923 2.23108 4.11856V8.28265H4.86286V7.40135Z" fill="#0984E3"/>
<path d="M7.39635 6.72162C6.89359 6.72162 6.48462 7.02655 6.48462 7.40141V8.28271H13.5408V7.40141C13.5408 7.02655 13.1318 6.72162 12.6291 6.72162H7.39635Z" fill="#0984E3"/>
<path d="M0.513672 13.2695V18.832H2.13529V16.6276H26.5677V18.832H28.1893V13.2695H0.513672Z" fill="#0984E3"/>
</g>
<defs>
<clipPath id="clip0_1_3004">
<rect width="27.6757" height="20.6351" fill="white" transform="translate(0.513672 0.515564)"/>
</clipPath>
</defs>
</svg>
