<svg width="43" height="48" viewBox="0 0 43 48" fill="none" xmlns="http://www.w3.org/2000/svg">
<g clip-path="url(#clip0_1_3650)">
<path d="M22.3913 0.6521C19.6711 0.6521 17.377 3.21168 17.377 6.24652C17.377 9.28135 19.6711 11.8409 22.3913 11.8409C25.1114 11.8409 27.3234 9.28135 27.3234 6.24652C27.3234 3.21168 25.1114 0.6521 22.3913 0.6521Z" fill="#10AC84"/>
<path d="M27.8652 11.8408C26.5101 13.5172 24.5693 14.5922 22.3913 14.5922C20.2132 14.5922 18.1902 13.5172 16.8351 11.8408C15.652 13.3044 14.9109 15.2219 14.9109 17.3435V18.7192C14.9109 19.4796 15.4624 20.0949 16.1439 20.0949H28.5564C29.2379 20.0949 29.7894 19.4796 29.7894 18.7192V17.3435C29.7894 15.2219 29.0483 13.3044 27.8652 11.8408Z" fill="#10AC84"/>
<path d="M12.0268 42.8767L5.74324 28.8214C5.13651 27.4641 3.65983 26.9107 2.44185 27.5839L0.799542 28.4916C0.188043 28.8299 -0.0607813 29.6591 0.244434 30.3401L7.64259 46.8483C7.94682 47.529 8.68688 47.8 9.29345 47.4662L10.9146 46.5701C12.1374 45.8944 12.6358 44.2391 12.0268 42.8767Z" fill="#10AC84"/>
<path d="M41.1909 23.3692C40.1797 22.5438 38.7741 22.7089 37.9357 23.7269L31.1952 32.9715C30.7266 33.5217 29.8388 33.8519 29.3703 33.8519H23.6243C22.9337 33.8519 22.3912 33.2467 22.3912 32.4762C22.3912 31.7057 22.9337 31.1005 23.6243 31.1005C25.2757 31.1005 27.104 31.1005 28.5564 31.1005C29.9127 31.1005 31.0224 29.8624 31.0224 28.3492C31.0224 26.8359 29.9127 25.5978 28.5564 25.5978C22.7656 25.5978 28.2892 25.5978 22.0953 25.5978C21.4808 25.5978 21.1743 25.163 20.6897 24.6898C18.7818 22.7744 15.9262 21.8516 13.0351 22.5992C11.4299 23.0143 10.3474 23.7378 9.24947 24.7079L9.21289 24.6748L7.42944 26.426L14.4383 42.106H16.5137H28.5564C30.8745 42.106 33.094 40.8678 34.475 38.8043L41.7087 27.2486C42.5225 26.038 42.3005 24.2773 41.1909 23.3692Z" fill="#10AC84"/>
</g>
<defs>
<clipPath id="clip0_1_3650">
<rect width="42.0874" height="46.9565" fill="white" transform="translate(0.112061 0.6521)"/>
</clipPath>
</defs>
</svg>
