<svg width="29" height="22" viewBox="0 0 29 22" fill="none" xmlns="http://www.w3.org/2000/svg">
<g clip-path="url(#clip0_1_2994)">
<path d="M26.5454 0.515564H7.6406C6.67075 0.515564 5.88373 1.1021 5.88373 1.82585V3.06056H7.72791V1.89059H26.4581V15.8555H25.0416V17.2306H26.5454C27.5152 17.2306 28.3022 16.6441 28.3022 15.9204V1.82585C28.3022 1.1021 27.5152 0.515564 26.5454 0.515564Z" fill="#0984E3"/>
<path d="M21.4404 4.43542H2.53553C1.5658 4.43542 0.778778 5.02187 0.778778 5.74571V19.8401C0.778778 20.564 1.5658 21.1504 2.53553 21.1504H21.4404C22.4103 21.1504 23.1973 20.564 23.1973 19.8401V5.74571C23.1973 5.02187 22.4103 4.43542 21.4404 4.43542ZM21.3531 19.7754H2.62296V5.8105H21.353V19.7754H21.3531Z" fill="#0984E3"/>
<path d="M4.05115 18.9338L8.31758 18.9348C8.44194 18.9348 8.55448 18.8787 8.60215 18.7931C8.64994 18.7076 8.62296 18.6088 8.53559 18.543L7.05514 17.4389L18.196 9.08757L19.6755 10.191C19.7637 10.2565 19.8961 10.2763 20.0105 10.2407C20.1258 10.2051 20.2006 10.1215 20.2006 10.0289L20.2014 6.84847C20.2014 6.72191 20.0637 6.6192 19.8935 6.6192L15.6279 6.61816C15.5036 6.61816 15.391 6.67418 15.3434 6.75984C15.2956 6.84541 15.3218 6.94412 15.41 7.00989L16.8921 8.11539L5.75124 16.4666L4.26904 15.3619C4.18076 15.2964 4.04928 15.2766 3.93397 15.3122C3.81872 15.3478 3.74408 15.4314 3.74408 15.524V18.7044C3.74414 18.831 3.8819 18.9338 4.05115 18.9338Z" fill="#0984E3"/>
</g>
<defs>
<clipPath id="clip0_1_2994">
<rect width="27.6757" height="20.6351" fill="white" transform="translate(0.702576 0.515564)"/>
</clipPath>
</defs>
</svg>
