<svg width="29" height="22" viewBox="0 0 29 22" fill="none" xmlns="http://www.w3.org/2000/svg">
<g clip-path="url(#clip0_1_2969)">
<path d="M24.946 6.60132V15.0649H11.8649V6.60132C10.0766 6.60132 8.62164 7.68611 8.62164 9.01949V18.6922H10.2433V17.4831H26.5676V18.6922H28.1892V9.01949C28.1892 7.68611 26.7343 6.60132 24.946 6.60132Z" fill="#0984E3"/>
<path d="M2.13517 13.8558H0.51355V18.6921H2.13517V13.8558Z" fill="#0984E3"/>
<path d="M7.00004 13.8558H5.37842V18.6921H7.00004V13.8558Z" fill="#0984E3"/>
<path d="M4.5676 10.2286V9.01947H2.94598V10.2286H0.51355V12.6467H7.00004V10.2286H4.5676Z" fill="#0984E3"/>
<path d="M6.43571 2.97406H1.07787L0.51355 7.13505V7.8104H7.00004V7.13505L6.43571 2.97406Z" fill="#0984E3"/>
<path d="M21.7027 11.4376H15.1081C14.214 11.4376 13.4865 11.98 13.4865 12.6467V13.8558H23.3243V12.6467C23.3243 11.98 22.5969 11.4376 21.7027 11.4376Z" fill="#0984E3"/>
<path d="M21.7027 4.18311H15.1081C14.214 4.18311 13.4865 4.7255 13.4865 5.39219V10.5539C13.964 10.3474 14.5176 10.2285 15.1081 10.2285H21.7027C22.2933 10.2285 22.8469 10.3474 23.3243 10.5539V5.39219C23.3243 4.7255 22.5969 4.18311 21.7027 4.18311Z" fill="#0984E3"/>
</g>
<defs>
<clipPath id="clip0_1_2969">
<rect width="27.6757" height="20.6351" fill="white" transform="translate(0.51355 0.515564)"/>
</clipPath>
</defs>
</svg>
