<svg width="16" height="18" viewBox="0 0 16 18" fill="none" xmlns="http://www.w3.org/2000/svg">
<path fill-rule="evenodd" clip-rule="evenodd" d="M3.55493 4.28582C3.55493 6.64901 5.54875 8.57148 7.99943 8.57148C10.4501 8.57148 12.4439 6.64901 12.4439 4.28582C12.4439 1.92263 10.4501 0 7.99943 0C5.54875 0 3.55493 1.92263 3.55493 4.28582ZM4.88827 4.28582C4.88827 2.63141 6.28394 1.28573 7.99943 1.28573C9.71493 1.28573 11.1106 2.63141 11.1106 4.28582C11.1106 5.94007 9.71493 7.28575 7.99943 7.28575C6.28394 7.28575 4.88827 5.94007 4.88827 4.28582ZM0.666667 18H15.3333C15.7013 18 16 17.712 16 17.3572V14.3571C16 12.1122 14.1058 10.2856 11.7778 10.2856H4.22217C1.89421 10.2856 0 12.1122 0 14.3571V17.3572C0 17.712 0.298665 18 0.666667 18ZM14.6667 16.7143H1.33333V14.3571C1.33333 12.8212 2.62939 11.5714 4.22217 11.5714H11.7778C13.3706 11.5714 14.6667 12.8212 14.6667 14.3571V16.7143Z" fill="white"/>
</svg>
