<svg width="65" height="43" viewBox="0 0 65 43" fill="none" xmlns="http://www.w3.org/2000/svg">
<path d="M63.1392 21.4639C63.1392 26.8699 59.8621 31.8852 54.3145 35.5945C48.7736 39.2993 41.0616 41.6233 32.4933 41.6233C23.925 41.6233 16.213 39.2993 10.6721 35.5945C5.1245 31.8852 1.84741 26.8699 1.84741 21.4639C1.84741 16.0579 5.1245 11.0425 10.6721 7.33319C16.213 3.62839 23.925 1.30444 32.4933 1.30444C41.0616 1.30444 48.7736 3.62839 54.3145 7.33319C59.8621 11.0425 63.1392 16.0579 63.1392 21.4639Z" stroke="white" stroke-width="2"/>
<path d="M32.3799 20.6732C28.5368 20.6732 25.4102 18.6062 25.4102 16.0653C25.4102 13.5245 28.5368 11.4573 32.3799 11.4573C36.223 11.4573 39.3497 13.5245 39.3497 16.0653C39.3497 18.6062 36.223 20.6732 32.3799 20.6732V20.6732ZM32.3799 12.8397C29.6897 12.8397 27.5011 14.2865 27.5011 16.0653C27.5011 17.844 29.6897 19.2908 32.3799 19.2908C35.0701 19.2908 37.2588 17.844 37.2588 16.0653C37.2588 14.2865 35.0701 12.8397 32.3799 12.8397V12.8397Z" fill="white"/>
<path d="M43.8804 30.8105H20.8805C20.3034 30.8105 19.8351 30.5009 19.8351 30.1193V26.8937C19.8351 24.48 22.8055 22.5161 26.4562 22.5161H38.3047C41.9554 22.5161 44.9258 24.48 44.9258 26.8937V30.1193C44.9258 30.5009 44.4574 30.8105 43.8804 30.8105V30.8105ZM21.926 29.4281H42.8349V26.8937C42.8349 25.2423 40.8025 23.8985 38.3047 23.8985H26.4562C23.9584 23.8985 21.926 25.2423 21.926 26.8937V29.4281Z" fill="white"/>
</svg>
