<svg width="63" height="48" viewBox="0 0 63 48" fill="none" xmlns="http://www.w3.org/2000/svg">
<ellipse opacity="0.9" cx="31.351" cy="24.0125" rx="31.1351" ry="23.2144" fill="white"/>
<path d="M44.0933 16.0703C43.3571 15.5211 42.483 15.0855 41.5209 14.7882C40.5588 14.491 39.5276 14.338 38.4861 14.338C37.4447 14.338 36.4135 14.491 35.4514 14.7882C34.4893 15.0855 33.6151 15.5211 32.8789 16.0703L31.351 17.2095L29.8231 16.0703C28.3359 14.9615 26.319 14.3386 24.2159 14.3386C22.1127 14.3386 20.0958 14.9615 18.6087 16.0703C17.1215 17.1791 16.2861 18.683 16.2861 20.2511C16.2861 21.8191 17.1215 23.323 18.6087 24.4318L20.1366 25.571L31.351 33.9325L42.5654 25.571L44.0933 24.4318C44.8299 23.8829 45.4142 23.2311 45.8129 22.5138C46.2115 21.7964 46.4167 21.0275 46.4167 20.2511C46.4167 19.4746 46.2115 18.7057 45.8129 17.9883C45.4142 17.271 44.8299 16.6192 44.0933 16.0703V16.0703Z" fill="#0984E3"/>
</svg>
