<svg width="63" height="48" viewBox="0 0 63 48" fill="none" xmlns="http://www.w3.org/2000/svg">
<ellipse opacity="0.9" cx="31.355" cy="24.1533" rx="31.1333" ry="23.2085" fill="white"/>
<path d="M44.097 16.2127C43.3608 15.6636 42.4867 15.2281 41.5247 14.9309C40.5626 14.6338 39.5315 14.4808 38.4901 14.4808C37.4487 14.4808 36.4176 14.6338 35.4555 14.9309C34.4935 15.2281 33.6194 15.6636 32.8832 16.2127L31.3554 17.3516L29.8275 16.2127C28.3405 15.1042 26.3236 14.4814 24.2206 14.4814C22.1177 14.4814 20.1008 15.1042 18.6138 16.2127C17.1267 17.3212 16.2913 18.8247 16.2913 20.3924C16.2913 21.9601 17.1267 23.4635 18.6138 24.5721L20.1416 25.711L31.3554 34.0703L42.5691 25.711L44.097 24.5721C44.8335 24.0233 45.4178 23.3717 45.8164 22.6545C46.215 21.9373 46.4202 21.1687 46.4202 20.3924C46.4202 19.6161 46.215 18.8474 45.8164 18.1302C45.4178 17.4131 44.8335 16.7615 44.097 16.2127V16.2127Z" stroke="#0984E3" stroke-width="2" stroke-linecap="round" stroke-linejoin="round"/>
</svg>
