<svg width="24" height="24" viewBox="0 0 24 24" fill="none" xmlns="http://www.w3.org/2000/svg">
<g clip-path="url(#clip0_1_3742)">
<path d="M8.75 17.6121V22.2501C8.75 22.5741 8.958 22.8611 9.266 22.9631C9.343 22.9881 9.422 23.0001 9.5 23.0001C9.734 23.0001 9.96 22.8901 10.104 22.6941L12.817 19.0021L8.75 17.6121Z" fill="white"/>
<path d="M23.685 0.138844C23.455 -0.0241555 23.153 -0.0461555 22.903 0.0848445L0.402984 11.8348C0.136983 11.9738 -0.0200166 12.2578 0.00198344 12.5568C0.0249835 12.8568 0.223984 13.1128 0.506984 13.2098L6.76199 15.3478L20.083 3.95784L9.77499 16.3768L20.258 19.9598C20.336 19.9858 20.418 19.9998 20.5 19.9998C20.636 19.9998 20.771 19.9628 20.89 19.8908C21.08 19.7748 21.209 19.5798 21.242 19.3608L23.992 0.860844C24.033 0.580844 23.915 0.302844 23.685 0.138844V0.138844Z" fill="white"/>
</g>
<defs>
<clipPath id="clip0_1_3742">
<rect width="24" height="24" fill="white"/>
</clipPath>
</defs>
</svg>
