<svg width="30" height="30" viewBox="0 0 30 30" fill="none" xmlns="http://www.w3.org/2000/svg">
<path d="M14.7027 0.869141C6.58222 0.869141 0 5.70185 0 11.6624C0 15.2007 5.18033 21.918 9.39077 26.7934C12.2108 30.0586 17.1946 30.0586 20.0146 26.7934C24.2251 21.9173 29.4054 15.2007 29.4054 11.6624C29.4054 5.70115 22.8232 0.869141 14.7027 0.869141ZM14.7027 16.7381C10.6649 16.7381 7.39093 14.3346 7.39093 11.3705C7.39093 8.4063 10.6649 6.00289 14.7027 6.00289C18.7405 6.00289 22.0145 8.4063 22.0145 11.3705C22.0145 14.3346 18.7405 16.7381 14.7027 16.7381Z" fill="#0984E3"/>
</svg>
