<svg width="30" height="30" viewBox="0 0 30 30" fill="none" xmlns="http://www.w3.org/2000/svg">
<path d="M15.1622 0.975464C7.04169 0.975464 0.459473 5.80818 0.459473 11.7687C0.459473 15.307 5.6398 22.0243 9.85024 26.8997C12.6702 30.165 17.6541 30.165 20.4741 26.8997C24.6846 22.0236 29.8649 15.307 29.8649 11.7687C29.8649 5.80748 23.2827 0.975464 15.1622 0.975464ZM15.1622 16.8444C11.1243 16.8444 7.8504 14.441 7.8504 11.4768C7.8504 8.51262 11.1243 6.10921 15.1622 6.10921C19.2 6.10921 22.4739 8.51262 22.4739 11.4768C22.4739 14.441 19.2 16.8444 15.1622 16.8444Z" fill="#0984E3"/>
</svg>
