<svg width="30" height="29" viewBox="0 0 30 29" fill="none" xmlns="http://www.w3.org/2000/svg">
<path d="M14.7019 0.000366211C6.58184 0.000366211 0 4.83185 0 10.7909C0 14.3282 5.18003 21.0439 9.39023 25.918C12.2101 29.1824 17.1936 29.1824 20.0135 25.918C24.2237 21.0432 29.4037 14.3282 29.4037 10.7909C29.4037 4.83114 22.8219 0.000366211 14.7019 0.000366211ZM14.7019 15.8652C10.6643 15.8652 7.3905 13.4624 7.3905 10.499C7.3905 7.5356 10.6643 5.13281 14.7019 5.13281C18.7394 5.13281 22.0132 7.5356 22.0132 10.499C22.0132 13.4624 18.7394 15.8652 14.7019 15.8652Z" fill="#0984E3"/>
</svg>
