<svg width="63" height="48" viewBox="0 0 63 48" fill="none" xmlns="http://www.w3.org/2000/svg">
<ellipse opacity="0.9" cx="31.4056" cy="24.0125" rx="31.1351" ry="23.2144" fill="white"/>
<path d="M44.1478 16.0703C43.4116 15.5211 42.5375 15.0855 41.5753 14.7882C40.6132 14.491 39.582 14.338 38.5406 14.338C37.4992 14.338 36.468 14.491 35.5059 14.7882C34.5438 15.0855 33.6696 15.5211 32.9334 16.0703L31.4055 17.2095L29.8775 16.0703C28.3904 14.9615 26.3734 14.3386 24.2703 14.3386C22.1672 14.3386 20.1503 14.9615 18.6631 16.0703C17.176 17.1791 16.3405 18.683 16.3405 20.2511C16.3405 21.8191 17.176 23.323 18.6631 24.4318L20.1911 25.571L31.4055 33.9325L42.6199 25.571L44.1478 24.4318C44.8844 23.8829 45.4687 23.2311 45.8673 22.5138C46.266 21.7964 46.4712 21.0275 46.4712 20.2511C46.4712 19.4746 46.266 18.7057 45.8673 17.9883C45.4687 17.271 44.8844 16.6192 44.1478 16.0703V16.0703Z" stroke="#0984E3" stroke-width="2" stroke-linecap="round" stroke-linejoin="round"/>
</svg>
