<svg width="63" height="48" viewBox="0 0 63 48" fill="none" xmlns="http://www.w3.org/2000/svg">
<ellipse opacity="0.9" cx="31.4056" cy="24.1671" rx="31.1351" ry="23.2144" fill="white"/>
<path d="M44.1478 16.2247C43.4116 15.6755 42.5375 15.2399 41.5753 14.9427C40.6132 14.6454 39.582 14.4924 38.5406 14.4924C37.4992 14.4924 36.468 14.6454 35.5059 14.9427C34.5438 15.2399 33.6696 15.6755 32.9334 16.2247L31.4055 17.364L29.8775 16.2247C28.3904 15.1159 26.3734 14.493 24.2703 14.493C22.1672 14.493 20.1503 15.1159 18.6631 16.2247C17.176 17.3335 16.3405 18.8374 16.3405 20.4055C16.3405 21.9736 17.176 23.4774 18.6631 24.5862L20.1911 25.7254L31.4055 34.0869L42.6199 25.7254L44.1478 24.5862C44.8844 24.0373 45.4687 23.3855 45.8673 22.6682C46.266 21.9508 46.4712 21.182 46.4712 20.4055C46.4712 19.629 46.266 18.8601 45.8673 18.1428C45.4687 17.4254 44.8844 16.7737 44.1478 16.2247V16.2247Z" stroke="#0984E3" stroke-width="2" stroke-linecap="round" stroke-linejoin="round"/>
</svg>
