<svg width="24" height="24" viewBox="0 0 24 24" fill="none" xmlns="http://www.w3.org/2000/svg">
<g clip-path="url(#clip0_1_2835)">
<path d="M8.75 17.6121V22.2501C8.75 22.5741 8.958 22.8611 9.266 22.9631C9.343 22.9881 9.422 23.0001 9.5 23.0001C9.734 23.0001 9.96 22.8901 10.104 22.6941L12.817 19.0021L8.75 17.6121Z" fill="white"/>
<path d="M23.6849 0.138844C23.4549 -0.0241555 23.1529 -0.0461555 22.9029 0.0848445L0.402923 11.8348C0.136922 11.9738 -0.0200776 12.2578 0.00192241 12.5568C0.0249224 12.8568 0.223923 13.1128 0.506923 13.2098L6.76192 15.3478L20.0829 3.95784L9.77493 16.3768L20.2579 19.9598C20.3359 19.9858 20.4179 19.9998 20.4999 19.9998C20.6359 19.9998 20.7709 19.9628 20.8899 19.8908C21.0799 19.7748 21.2089 19.5798 21.2419 19.3608L23.9919 0.860844C24.0329 0.580844 23.9149 0.302844 23.6849 0.138844V0.138844Z" fill="white"/>
</g>
<defs>
<clipPath id="clip0_1_2835">
<rect width="24" height="24" fill="white"/>
</clipPath>
</defs>
</svg>
