<svg width="92" height="92" viewBox="0 0 92 92" fill="none" xmlns="http://www.w3.org/2000/svg">
<g clip-path="url(#clip0_37_9)">
<path d="M46 0C20.6341 0 0 20.636 0 46C0 71.364 20.6341 92 46 92C71.3659 92 92 71.364 92 46C92 20.636 71.3659 0 46 0ZM64.287 47.6116L37.4537 64.8616C37.1393 65.0656 36.7761 65.1667 36.4167 65.1667C36.1023 65.1667 35.784 65.088 35.4996 64.9328C34.8818 64.5959 34.5 63.9519 34.5 63.25V28.75C34.5 28.0481 34.8818 27.4041 35.4996 27.0672C36.106 26.7341 36.8659 26.7546 37.4537 27.1384L64.287 44.3884C64.8336 44.7402 65.1667 45.3486 65.1667 46C65.1667 46.6514 64.8336 47.2596 64.287 47.6116Z" fill="#0984E3"/>
</g>
<defs>
<clipPath id="clip0_37_9">
<rect width="92" height="92" fill="white"/>
</clipPath>
</defs>
</svg>
