<svg width="26" height="26" viewBox="0 0 26 26" fill="none" xmlns="http://www.w3.org/2000/svg">
<g clip-path="url(#clip0_37_144)">
<path fill-rule="evenodd" clip-rule="evenodd" d="M25.728 13C25.728 13.5523 25.2803 14 24.728 14H1C0.447715 14 0 13.5523 0 13V13C0 12.4477 0.447716 12 1 12H24.728C25.2803 12 25.728 12.4477 25.728 13V13Z" fill="#7D768D"/>
<path fill-rule="evenodd" clip-rule="evenodd" d="M26 13C26 13.5523 25.5523 14 25 14L1 14C0.447715 14 -1.95703e-08 13.5523 -4.37114e-08 13V13C-6.78526e-08 12.4477 0.447716 12 1 12L25 12C25.5523 12 26 12.4477 26 13V13Z" fill="#7D768D"/>
</g>
<defs>
<clipPath id="clip0_37_144">
<rect width="26" height="26" fill="white"/>
</clipPath>
</defs>
</svg>
