<svg width="30" height="29" viewBox="0 0 30 29" fill="none" xmlns="http://www.w3.org/2000/svg">
<path d="M14.7027 -0.00012207C6.58222 -0.00012207 0 4.83259 0 10.7931C0 14.3314 5.18033 21.0487 9.39077 25.9242C12.2108 29.1894 17.1946 29.1894 20.0146 25.9242C24.2251 21.048 29.4054 14.3314 29.4054 10.7931C29.4054 4.83189 22.8232 -0.00012207 14.7027 -0.00012207ZM14.7027 15.8688C10.6649 15.8688 7.39093 13.4654 7.39093 10.5012C7.39093 7.53703 10.6649 5.13363 14.7027 5.13363C18.7405 5.13363 22.0145 7.53703 22.0145 10.5012C22.0145 13.4654 18.7405 15.8688 14.7027 15.8688Z" fill="#0984E3"/>
</svg>
