<svg width="48" height="34" viewBox="0 0 48 34" fill="none" xmlns="http://www.w3.org/2000/svg">
<g style="mix-blend-mode:darken" filter="url(#filter0_d_8_803)">
<path d="M43.3911 11.0857L43.3893 11.0837L32.5429 0.587768C31.7303 -0.198522 30.416 -0.195596 29.6072 0.59463C28.7985 1.38476 28.8016 2.66274 29.6142 3.44913L36.8964 10.496H6.07578C4.92933 10.496 4 11.3996 4 12.5144C4 13.6292 4.92933 14.5329 6.07578 14.5329H36.8963L29.6143 21.5797C28.8017 22.3661 28.7986 23.6441 29.6073 24.4342C30.4161 25.2246 31.7305 25.2273 32.543 24.4411L43.3894 13.9451L43.3913 13.9432C44.2042 13.1542 44.2016 11.8721 43.3911 11.0857Z" fill="#27A8D0"/>
</g>
<defs>
<filter id="filter0_d_8_803" x="0" y="0" width="48" height="33.0288" filterUnits="userSpaceOnUse" color-interpolation-filters="sRGB">
<feFlood flood-opacity="0" result="BackgroundImageFix"/>
<feColorMatrix in="SourceAlpha" type="matrix" values="0 0 0 0 0 0 0 0 0 0 0 0 0 0 0 0 0 0 127 0" result="hardAlpha"/>
<feOffset dy="4"/>
<feGaussianBlur stdDeviation="2"/>
<feComposite in2="hardAlpha" operator="out"/>
<feColorMatrix type="matrix" values="0 0 0 0 0 0 0 0 0 0 0 0 0 0 0 0 0 0 0.25 0"/>
<feBlend mode="normal" in2="BackgroundImageFix" result="effect1_dropShadow_8_803"/>
<feBlend mode="normal" in="SourceGraphic" in2="effect1_dropShadow_8_803" result="shape"/>
</filter>
</defs>
</svg>
