<svg width="40" height="26" viewBox="0 0 40 26" fill="none" xmlns="http://www.w3.org/2000/svg">
<path d="M39.3911 11.0857L39.3893 11.0837L28.5429 0.587768C27.7303 -0.198522 26.416 -0.195596 25.6072 0.59463C24.7985 1.38476 24.8016 2.66274 25.6142 3.44913L32.8964 10.496H2.07578C0.929328 10.496 0 11.3996 0 12.5144C0 13.6292 0.929328 14.5329 2.07578 14.5329H32.8963L25.6143 21.5797C24.8017 22.3661 24.7986 23.6441 25.6073 24.4342C26.4161 25.2246 27.7305 25.2273 28.543 24.4411L39.3894 13.9451L39.3912 13.9432C40.2042 13.1542 40.2016 11.8721 39.3911 11.0857Z" fill="white"/>
</svg>
