<svg width="40" height="30" viewBox="0 0 40 30" fill="none" xmlns="http://www.w3.org/2000/svg">
<path d="M39.3911 13.0269L39.3893 13.0247L28.5429 0.690695C27.7303 -0.233286 26.416 -0.229847 25.6072 0.698758C24.7985 1.62725 24.8016 3.12903 25.6142 4.05312L32.8964 12.334H2.07578C0.929328 12.334 0 13.3959 0 14.7059C0 16.0159 0.929328 17.0778 2.07578 17.0778H32.8963L25.6143 25.3586C24.8017 26.2827 24.7986 27.7845 25.6073 28.713C26.4161 29.6417 27.7305 29.6449 28.543 28.7211L39.3894 16.3871L39.3912 16.3848C40.2042 15.4577 40.2016 13.951 39.3911 13.0269Z" fill="white"/>
</svg>
